<svg xmlns="http://www.w3.org/2000/svg" viewBox="0 0 320 384" width="320" height="384">
<g transform="translate(0, 0)">
    <polygon points="16,2 20,6 18,18 14,14" fill="#ECF0F1" stroke="#2C3E50" stroke-width="1"/>
    <line x1="16" y1="2" x2="16" y2="16" stroke="#BDC3C7" stroke-width="1"/>
    <rect x="10" y="16" width="12" height="3" rx="1" fill="#F1C40F" stroke="#2C3E50" stroke-width="1"/>
    <rect x="14.5" y="19" width="3" height="7" rx="0.5" fill="#E67E22" stroke="#2C3E50" stroke-width="1"/>
    <circle cx="16" cy="28" r="2.5" fill="#F1C40F" stroke="#2C3E50" stroke-width="1"/>
</g><g transform="translate(32, 0)">
    <path d="M6 5 L26 5 L26 18 C26 24 16 29 16 29 C16 29 6 24 6 18 Z" fill="#3498DB" stroke="#2C3E50" stroke-width="1.5"/>
    <path d="M8 7 L24 7 L24 17 C24 22 16 26.5 16 26.5 C16 26.5 8 22 8 17 Z" fill="#2980B9"/>
    <polygon points="16,9 18.5,14 24,14 19.5,17.5 21,23 16,19.5 11,23 12.5,17.5 8,14 13.5,14" fill="#F1C40F" stroke="#2C3E50" stroke-width="0.75"/>
</g><g transform="translate(64, 0)">
    <line x1="7" y1="27" x2="25" y2="5" stroke="#795548" stroke-width="3" stroke-linecap="round"/>
    <path d="M17 7 C21 4 27 6 28 11 C26 14 21 15 19 13 Z" fill="#BDC3C7" stroke="#2C3E50" stroke-width="1"/>
    <path d="M15 15 C11 17 9 23 13 26 C16 24 18 19 17 17 Z" fill="#95A5A6" stroke="#2C3E50" stroke-width="1"/>
    <circle cx="18" cy="12" r="2" fill="#F1C40F" stroke="#2C3E50" stroke-width="1"/>
</g><g transform="translate(96, 0)">
    <rect x="13" y="4" width="6" height="3" rx="1" fill="#D35400" stroke="#2C3E50" stroke-width="1"/>
    <rect x="14" y="7" width="4" height="4" fill="#BDC3C7" stroke="#2C3E50" stroke-width="1"/>
    <circle cx="16" cy="20" r="9" fill="#E74C3C" stroke="#2C3E50" stroke-width="1.5"/>
    <path d="M9 20 C9 25 23 25 23 20 C23 15 9 15 9 20 Z" fill="#C0392B"/>
    <circle cx="13" cy="17" r="2" fill="#FFFFFF" opacity="0.7"/>
    <circle cx="19" cy="22" r="1.2" fill="#FFFFFF" opacity="0.6"/>
</g><g transform="translate(128, 0)">
    <rect x="13" y="4" width="6" height="3" rx="1" fill="#D35400" stroke="#2C3E50" stroke-width="1"/>
    <rect x="14" y="7" width="4" height="4" fill="#BDC3C7" stroke="#2C3E50" stroke-width="1"/>
    <circle cx="16" cy="20" r="9" fill="#3498DB" stroke="#2C3E50" stroke-width="1.5"/>
    <path d="M9 20 C9 25 23 25 23 20 C23 15 9 15 9 20 Z" fill="#2980B9"/>
    <circle cx="13" cy="17" r="2" fill="#FFFFFF" opacity="0.7"/>
    <circle cx="19" cy="22" r="1.2" fill="#FFFFFF" opacity="0.6"/>
</g><g transform="translate(160, 0)">
    <path d="M5 14 Q16 7 27 14 L27 26 L5 26 Z" fill="#A04000" stroke="#2C3E50" stroke-width="1.5"/>
    <path d="M5 14 Q16 9 27 14 L27 17 Q16 12 5 17 Z" fill="#D35400"/>
    <rect x="5" y="17" width="22" height="9" fill="#873600" stroke="#2C3E50" stroke-width="1"/>
    <rect x="14" y="15" width="4" height="5" rx="1" fill="#F1C40F" stroke="#2C3E50" stroke-width="1"/>
    <circle cx="16" cy="17.5" r="1" fill="#2C3E50"/>
    <line x1="5" y1="17" x2="27" y2="17" stroke="#F1C40F" stroke-width="1.5"/>
</g><g transform="translate(192, 0)">
    <line x1="6" y1="26" x2="22" y2="10" stroke="#8E44AD" stroke-width="2.5" stroke-linecap="round"/>
    <line x1="6" y1="26" x2="11" y2="21" stroke="#F39C12" stroke-width="3" stroke-linecap="round"/>
    <polygon points="22,5 24,9 28,10 25,13 26,17 22,14 18,17 19,13 16,10 20,9" fill="#F1C40F" stroke="#2C3E50" stroke-width="0.75"/>
    <circle cx="12" cy="7" r="1" fill="#F1C40F"/>
    <circle cx="26" cy="21" r="1" fill="#F1C40F"/>
</g><g transform="translate(224, 0)">
    <path d="M8 15 C8 7 24 7 24 15 L24 25 L8 25 Z" fill="#BDC3C7" stroke="#2C3E50" stroke-width="1.5"/>
    <path d="M12 4 Q16 1 20 4 L18 8 L14 8 Z" fill="#E74C3C" stroke="#2C3E50" stroke-width="1"/>
    <rect x="10" y="14" width="12" height="3" fill="#2C3E50" rx="0.5"/>
    <line x1="14" y1="18" x2="14" y2="23" stroke="#2C3E50" stroke-width="1"/>
    <line x1="16" y1="18" x2="16" y2="23" stroke="#2C3E50" stroke-width="1"/>
    <line x1="18" y1="18" x2="18" y2="23" stroke="#2C3E50" stroke-width="1"/>
</g><g transform="translate(256, 0)">
    <path d="M8 5 Q24 16 8 27" fill="none" stroke="#795548" stroke-width="3" stroke-linecap="round"/>
    <line x1="8" y1="5" x2="8" y2="27" stroke="#BDC3C7" stroke-width="1" stroke-dasharray="2,1"/>
    <line x1="4" y1="16" x2="26" y2="16" stroke="#27AE60" stroke-width="1.5"/>
    <polygon points="26,16 22,14 22,18" fill="#F1C40F" stroke="#2C3E50" stroke-width="0.5"/>
</g><g transform="translate(288, 0)">
    <rect x="7" y="6" width="18" height="20" rx="2" fill="#FDEBD0" stroke="#2C3E50" stroke-width="1.5"/>
    <circle cx="7" cy="6" r="2.5" fill="#F5B041" stroke="#2C3E50" stroke-width="1"/>
    <circle cx="25" cy="26" r="2.5" fill="#F5B041" stroke="#2C3E50" stroke-width="1"/>
    <line x1="11" y1="11" x2="21" y2="11" stroke="#7F8C8D" stroke-width="1.5" stroke-linecap="round"/>
    <line x1="11" y1="15" x2="19" y2="15" stroke="#7F8C8D" stroke-width="1.5" stroke-linecap="round"/>
    <line x1="11" y1="19" x2="17" y2="19" stroke="#7F8C8D" stroke-width="1.5" stroke-linecap="round"/>
    <circle cx="16" cy="22" r="2" fill="#E74C3C"/>
</g><g transform="translate(0, 32)">
    <circle cx="16" cy="16" r="12" fill="#F1C40F" stroke="#2C3E50" stroke-width="1.5"/>
    <circle cx="16" cy="16" r="9" fill="#F39C12" stroke="#2C3E50" stroke-width="0.75"/>
    <text x="16" y="21" font-size="12" font-weight="bold" fill="#F9E79F" text-anchor="middle" font-family="monospace">$</text>
</g><g transform="translate(32, 32)">
    <polygon points="10,8 22,8 28,15 16,27 4,15" fill="#E74C3C" stroke="#2C3E50" stroke-width="1.5"/>
    <polygon points="10,8 22,8 19,15 13,15" fill="#F1948A"/>
    <polygon points="13,15 19,15 16,27" fill="#C0392B"/>
    <polygon points="4,15 13,15 16,27" fill="#922B21"/>
</g><g transform="translate(64, 32)">
    <polygon points="4,24 7,10 12,18 16,8 20,18 25,10 28,24" fill="#F1C40F" stroke="#2C3E50" stroke-width="1.5"/>
    <rect x="4" y="22" width="24" height="4" fill="#F39C12" stroke="#2C3E50" stroke-width="1"/>
    <circle cx="7" cy="10" r="1.5" fill="#E74C3C"/>
    <circle cx="16" cy="8" r="2" fill="#3498DB"/>
    <circle cx="25" cy="10" r="1.5" fill="#2ECC71"/>
</g><g transform="translate(96, 32)">
    <circle cx="12" cy="12" r="7" fill="#F1C40F" stroke="#2C3E50" stroke-width="1.5"/>
    <circle cx="12" cy="12" r="3.5" fill="#FFFFFF" stroke="#2C3E50" stroke-width="1"/>
    <rect x="16" y="10.5" width="12" height="3" fill="#F1C40F" stroke="#2C3E50" stroke-width="1"/>
    <rect x="23" y="13.5" width="2.5" height="4" fill="#F1C40F" stroke="#2C3E50" stroke-width="1"/>
    <rect x="26.5" y="13.5" width="2" height="3" fill="#F1C40F" stroke="#2C3E50" stroke-width="1"/>
</g><g transform="translate(128, 32)">
    <path d="M9 6 L23 6 L21 16 C21 19 18 21 16 21 C14 21 11 19 11 16 Z" fill="#F1C40F" stroke="#2C3E50" stroke-width="1.5"/>
    <path d="M9 8 C5 8 5 14 9 14" fill="none" stroke="#2C3E50" stroke-width="1.5"/>
    <path d="M23 8 C27 8 27 14 23 14" fill="none" stroke="#2C3E50" stroke-width="1.5"/>
    <rect x="14.5" y="21" width="3" height="4" fill="#F39C12" stroke="#2C3E50" stroke-width="1"/>
    <rect x="10" y="25" width="12" height="4" fill="#7F8C8D" stroke="#2C3E50" stroke-width="1"/>
</g><g transform="translate(160, 32)">
    <polygon points="7,16 11,10 25,10 21,16" fill="#F9E79F" stroke="#2C3E50" stroke-width="1"/>
    <polygon points="7,16 21,16 25,24 11,24" fill="#F1C40F" stroke="#2C3E50" stroke-width="1"/>
    <polygon points="21,16 25,10 29,17 25,24" fill="#D4AC0D" stroke="#2C3E50" stroke-width="1"/>
</g><g transform="translate(192, 32)">
    <path d="M8 6 L24 6 L22 17 C22 20 18 22 16 22 C14 22 10 20 10 17 Z" fill="#F1C40F" stroke="#2C3E50" stroke-width="1.5"/>
    <circle cx="16" cy="12" r="3" fill="#9B59B6" stroke="#2C3E50" stroke-width="0.75"/>
    <rect x="14.5" y="22" width="3" height="4" fill="#F39C12" stroke="#2C3E50" stroke-width="1"/>
    <ellipse cx="16" cy="26.5" rx="6" ry="2" fill="#F1C40F" stroke="#2C3E50" stroke-width="1"/>
</g><g transform="translate(224, 32)">
    <circle cx="16" cy="18" r="8" fill="none" stroke="#F1C40F" stroke-width="3"/>
    <polygon points="12,10 20,10 23,6 16,2 9,6" fill="#85C1E9" stroke="#2C3E50" stroke-width="1"/>
    <polygon points="12,10 20,10 16,6" fill="#3498DB"/>
</g><g transform="translate(256, 32)">
    <path d="M12 11 C12 7 20 7 20 11 L25 24 C25 28 7 28 7 24 Z" fill="#A04000" stroke="#2C3E50" stroke-width="1.5"/>
    <rect x="11" y="10" width="10" height="2.5" rx="1" fill="#F1C40F" stroke="#2C3E50" stroke-width="0.75"/>
    <circle cx="16" cy="19" r="2" fill="#E74C3C"/>
    <circle cx="13" cy="22" r="1.5" fill="#3498DB"/>
    <circle cx="19" cy="22" r="1.5" fill="#2ECC71"/>
</g><g transform="translate(288, 32)">
    <polygon points="16,3 26,10 26,22 16,29 6,22 6,10" fill="#2ECC71" stroke="#2C3E50" stroke-width="1.5"/>
    <polygon points="16,3 26,10 16,16 6,10" fill="#A9DFBF"/>
    <polygon points="6,10 16,16 16,29 6,22" fill="#27AE60"/>
    <polygon points="26,10 16,16 16,29 26,22" fill="#1E8449"/>
</g><g transform="translate(0, 64)">
    <circle cx="16" cy="16" r="11" fill="#BDC3C7" stroke="#2C3E50" stroke-width="1.5"/>
    <rect x="9" y="13" width="14" height="4" rx="1" fill="#2C3E50"/>
    <circle cx="13" cy="15" r="1.5" fill="#3498DB"/>
    <circle cx="19" cy="15" r="1.5" fill="#3498DB"/>
    <path d="M12 5 Q16 1 20 5 L16 8 Z" fill="#E74C3C"/>
</g><g transform="translate(32, 64)">
    <polygon points="16,3 7,16 25,16" fill="#8E44AD" stroke="#2C3E50" stroke-width="1.5"/>
    <circle cx="16" cy="19" r="6" fill="#FAD7A0" stroke="#2C3E50" stroke-width="1"/>
    <path d="M10 20 C10 28 22 28 22 20 Z" fill="#ECF0F1" stroke="#2C3E50" stroke-width="1"/>
    <circle cx="14" cy="18" r="1" fill="#2C3E50"/>
    <circle cx="18" cy="18" r="1" fill="#2C3E50"/>
    <polygon points="16,7 17,9 19,9 17.5,10.5 18,12 16,11 14,12 14.5,10.5 13,9 15,9" fill="#F1C40F"/>
</g><g transform="translate(64, 64)">
    <path d="M7 16 C7 7 25 7 25 16 C25 24 7 24 7 16 Z" fill="#2C3E50" stroke="#17202A" stroke-width="1.5"/>
    <ellipse cx="16" cy="16" rx="6" ry="3" fill="#17202A"/>
    <circle cx="13" cy="16" r="1.5" fill="#2ECC71"/>
    <circle cx="19" cy="16" r="1.5" fill="#2ECC71"/>
    <path d="M11 20 C13 23 19 23 21 20" stroke="#E74C3C" stroke-width="1.5" fill="none"/>
</g><g transform="translate(96, 64)">
    <circle cx="16" cy="17" r="8" fill="#FFE0B2" stroke="#2C3E50" stroke-width="1.5"/>
    <path d="M8 15 C8 9 24 9 24 15 C24 15 22 11 16 11 C10 11 8 15 8 15 Z" fill="#F57C00"/>
    <polygon points="12,9 13.5,6 16,8 18.5,6 20,9" fill="#F1C40F" stroke="#2C3E50" stroke-width="0.75"/>
    <circle cx="13" cy="17" r="1.2" fill="#2C3E50"/>
    <circle cx="19" cy="17" r="1.2" fill="#2C3E50"/>
    <path d="M14 21 Q16 23 18 21" stroke="#E91E63" stroke-width="1" fill="none"/>
</g><g transform="translate(128, 64)">
    <circle cx="16" cy="18" r="8" fill="#FFE0B2" stroke="#2C3E50" stroke-width="1.5"/>
    <polygon points="9,10 11,5 14,8 16,4 18,8 21,5 23,10" fill="#F1C40F" stroke="#2C3E50" stroke-width="1"/>
    <circle cx="13" cy="17" r="1.2" fill="#2C3E50"/>
    <circle cx="19" cy="17" r="1.2" fill="#2C3E50"/>
    <path d="M12 21 Q16 24 20 21" stroke="#795548" stroke-width="2" fill="none"/>
</g><g transform="translate(160, 64)">
    <circle cx="16" cy="15" r="9" fill="#ECEFF1" stroke="#2C3E50" stroke-width="1.5"/>
    <rect x="12" y="21" width="8" height="5" fill="#ECEFF1" stroke="#2C3E50" stroke-width="1"/>
    <ellipse cx="12.5" cy="14" rx="2.5" ry="3" fill="#263238"/>
    <ellipse cx="19.5" cy="14" rx="2.5" ry="3" fill="#263238"/>
    <polygon points="16,17 15,19 17,19" fill="#263238"/>
    <line x1="14" y1="23" x2="14" y2="26" stroke="#263238" stroke-width="1"/>
    <line x1="18" y1="23" x2="18" y2="26" stroke="#263238" stroke-width="1"/>
</g><g transform="translate(192, 64)">
    <polygon points="6,15 2,11 7,9" fill="#4CAF50" stroke="#2C3E50" stroke-width="1"/>
    <polygon points="26,15 30,11 25,9" fill="#4CAF50" stroke="#2C3E50" stroke-width="1"/>
    <circle cx="16" cy="16" r="8" fill="#4CAF50" stroke="#2C3E50" stroke-width="1.5"/>
    <ellipse cx="13" cy="15" rx="2" ry="1.5" fill="#FFEB3B"/>
    <ellipse cx="19" cy="15" rx="2" ry="1.5" fill="#FFEB3B"/>
    <circle cx="13" cy="15" r="0.8" fill="#2C3E50"/>
    <circle cx="19" cy="15" r="0.8" fill="#2C3E50"/>
    <path d="M12 20 Q16 23 20 20" stroke="#2C3E50" stroke-width="1.2" fill="none"/>
</g><g transform="translate(224, 64)">
    <circle cx="16" cy="16" r="9" fill="#E91E63" stroke="#2C3E50" stroke-width="1.5"/>
    <polygon points="10,8 12,3 15,8" fill="#FF9800" stroke="#2C3E50" stroke-width="1"/>
    <polygon points="22,8 20,3 17,8" fill="#FF9800" stroke="#2C3E50" stroke-width="1"/>
    <circle cx="12.5" cy="15" r="2.5" fill="#FFEB3B" stroke="#2C3E50" stroke-width="0.75"/>
    <circle cx="19.5" cy="15" r="2.5" fill="#FFEB3B" stroke="#2C3E50" stroke-width="0.75"/>
    <circle cx="12.5" cy="15" r="1.2" fill="#2C3E50"/>
    <circle cx="19.5" cy="15" r="1.2" fill="#2C3E50"/>
    <circle cx="16" cy="20" r="1" fill="#FF5722"/>
</g><g transform="translate(256, 64)">
    <rect x="7" y="7" width="18" height="18" rx="3" fill="#78909C" stroke="#2C3E50" stroke-width="1.5"/>
    <rect x="10" y="13" width="4" height="4" fill="#00E676" stroke="#2C3E50" stroke-width="0.75"/>
    <rect x="18" y="13" width="4" height="4" fill="#00E676" stroke="#2C3E50" stroke-width="0.75"/>
    <line x1="11" y1="21" x2="21" y2="21" stroke="#37474F" stroke-width="2"/>
</g><g transform="translate(288, 64)">
    <polygon points="16,2 6,15 26,15" fill="#311B92" stroke="#2C3E50" stroke-width="1.5"/>
    <ellipse cx="16" cy="15" rx="12" ry="2.5" fill="#4527A0" stroke="#2C3E50" stroke-width="1"/>
    <circle cx="16" cy="21" r="6" fill="#FFE0B2" stroke="#2C3E50" stroke-width="1"/>
    <circle cx="13.5" cy="20" r="1" fill="#2C3E50"/>
    <circle cx="18.5" cy="20" r="1" fill="#2C3E50"/>
    <circle cx="16" cy="14" r="1.5" fill="#FF5722"/>
</g><g transform="translate(0, 96)">
    <circle cx="16" cy="16" r="11" fill="#FF9800" stroke="#2C3E50" stroke-width="1.5"/>
    <rect x="10" y="10" width="12" height="12" rx="2" fill="#FFE0B2" stroke="#2C3E50" stroke-width="1"/>
    <circle cx="16" cy="16" r="3" fill="#E65100"/>
</g><g transform="translate(32, 96)">
    <circle cx="16" cy="16" r="11" fill="#8D6E63" stroke="#2C3E50" stroke-width="1.5"/>
    <rect x="10" y="10" width="12" height="12" rx="2" fill="#D7CCC8" stroke="#2C3E50" stroke-width="1"/>
    <circle cx="16" cy="16" r="3" fill="#4E342E"/>
</g><g transform="translate(64, 96)">
    <circle cx="16" cy="16" r="11" fill="#E64A19" stroke="#2C3E50" stroke-width="1.5"/>
    <rect x="10" y="10" width="12" height="12" rx="2" fill="#FFFFFF" stroke="#2C3E50" stroke-width="1"/>
    <circle cx="16" cy="16" r="3" fill="#212121"/>
</g><g transform="translate(96, 96)">
    <circle cx="16" cy="16" r="11" fill="#5D4037" stroke="#2C3E50" stroke-width="1.5"/>
    <rect x="10" y="10" width="12" height="12" rx="2" fill="#FFD54F" stroke="#2C3E50" stroke-width="1"/>
    <circle cx="16" cy="16" r="3" fill="#3E2723"/>
</g><g transform="translate(128, 96)">
    <circle cx="16" cy="16" r="11" fill="#4CAF50" stroke="#2C3E50" stroke-width="1.5"/>
    <rect x="10" y="10" width="12" height="12" rx="2" fill="#81C784" stroke="#2C3E50" stroke-width="1"/>
    <circle cx="16" cy="16" r="3" fill="#1B5E20"/>
</g><g transform="translate(160, 96)">
    <circle cx="16" cy="16" r="11" fill="#FAFAFA" stroke="#2C3E50" stroke-width="1.5"/>
    <rect x="10" y="10" width="12" height="12" rx="2" fill="#F8BBD0" stroke="#2C3E50" stroke-width="1"/>
    <circle cx="16" cy="16" r="3" fill="#424242"/>
</g><g transform="translate(192, 96)">
    <circle cx="16" cy="16" r="11" fill="#FFEB3B" stroke="#2C3E50" stroke-width="1.5"/>
    <rect x="10" y="10" width="12" height="12" rx="2" fill="#FF9800" stroke="#2C3E50" stroke-width="1"/>
    <circle cx="16" cy="16" r="3" fill="#F57F17"/>
</g><g transform="translate(224, 96)">
    <circle cx="16" cy="16" r="11" fill="#F48FB1" stroke="#2C3E50" stroke-width="1.5"/>
    <rect x="10" y="10" width="12" height="12" rx="2" fill="#AD1457" stroke="#2C3E50" stroke-width="1"/>
    <circle cx="16" cy="16" r="3" fill="#F8BBD0"/>
</g><g transform="translate(256, 96)">
    <circle cx="16" cy="16" r="11" fill="#212121" stroke="#2C3E50" stroke-width="1.5"/>
    <rect x="10" y="10" width="12" height="12" rx="2" fill="#FFFFFF" stroke="#2C3E50" stroke-width="1"/>
    <circle cx="16" cy="16" r="3" fill="#FF9800"/>
</g><g transform="translate(288, 96)">
    <circle cx="16" cy="16" r="11" fill="#212121" stroke="#2C3E50" stroke-width="1.5"/>
    <rect x="10" y="10" width="12" height="12" rx="2" fill="#FFFFFF" stroke="#2C3E50" stroke-width="1"/>
    <circle cx="16" cy="16" r="3" fill="#616161"/>
</g><g transform="translate(0, 128)">
    <circle cx="16" cy="16" r="11" fill="#FFB74D" stroke="#2C3E50" stroke-width="1.5"/>
    <rect x="10" y="10" width="12" height="12" rx="2" fill="#E53935" stroke="#2C3E50" stroke-width="1"/>
    <circle cx="16" cy="16" r="3" fill="#FFF176"/>
</g><g transform="translate(32, 128)">
    <circle cx="16" cy="16" r="11" fill="#8D6E63" stroke="#2C3E50" stroke-width="1.5"/>
    <rect x="10" y="10" width="12" height="12" rx="2" fill="#4CAF50" stroke="#2C3E50" stroke-width="1"/>
    <circle cx="16" cy="16" r="3" fill="#FFEB3B"/>
</g><g transform="translate(64, 128)">
    <circle cx="16" cy="16" r="11" fill="#EC407A" stroke="#2C3E50" stroke-width="1.5"/>
    <rect x="10" y="10" width="12" height="12" rx="2" fill="#FFE082" stroke="#2C3E50" stroke-width="1"/>
    <circle cx="16" cy="16" r="3" fill="#FFFFFF"/>
</g><g transform="translate(96, 128)">
    <circle cx="16" cy="16" r="11" fill="#F8BBD0" stroke="#2C3E50" stroke-width="1.5"/>
    <rect x="10" y="10" width="12" height="12" rx="2" fill="#E91E63" stroke="#2C3E50" stroke-width="1"/>
    <circle cx="16" cy="16" r="3" fill="#FFFFFF"/>
</g><g transform="translate(128, 128)">
    <circle cx="16" cy="16" r="11" fill="#80DEEA" stroke="#2C3E50" stroke-width="1.5"/>
    <rect x="10" y="10" width="12" height="12" rx="2" fill="#F48FB1" stroke="#2C3E50" stroke-width="1"/>
    <circle cx="16" cy="16" r="3" fill="#FFCC80"/>
</g><g transform="translate(160, 128)">
    <circle cx="16" cy="16" r="11" fill="#6D4C41" stroke="#2C3E50" stroke-width="1.5"/>
    <rect x="10" y="10" width="12" height="12" rx="2" fill="#EEEEEE" stroke="#2C3E50" stroke-width="1"/>
    <circle cx="16" cy="16" r="3" fill="#3E2723"/>
</g><g transform="translate(192, 128)">
    <circle cx="16" cy="16" r="11" fill="#E53935" stroke="#2C3E50" stroke-width="1.5"/>
    <rect x="10" y="10" width="12" height="12" rx="2" fill="#FFD54F" stroke="#2C3E50" stroke-width="1"/>
    <circle cx="16" cy="16" r="3" fill="#4CAF50"/>
</g><g transform="translate(224, 128)">
    <circle cx="16" cy="16" r="11" fill="#FF7043" stroke="#2C3E50" stroke-width="1.5"/>
    <rect x="10" y="10" width="12" height="12" rx="2" fill="#FFFFFF" stroke="#2C3E50" stroke-width="1"/>
    <circle cx="16" cy="16" r="3" fill="#212121"/>
</g><g transform="translate(256, 128)">
    <circle cx="16" cy="16" r="11" fill="#E53935" stroke="#2C3E50" stroke-width="1.5"/>
    <rect x="10" y="10" width="12" height="12" rx="2" fill="#4CAF50" stroke="#2C3E50" stroke-width="1"/>
    <circle cx="16" cy="16" r="3" fill="#C62828"/>
</g><g transform="translate(288, 128)">
    <circle cx="16" cy="16" r="11" fill="#039BE5" stroke="#2C3E50" stroke-width="1.5"/>
    <rect x="10" y="10" width="12" height="12" rx="2" fill="#E0E0E0" stroke="#2C3E50" stroke-width="1"/>
    <circle cx="16" cy="16" r="3" fill="#01579B"/>
</g><g transform="translate(0, 160)">
    <circle cx="16" cy="16" r="11" fill="#4CAF50" stroke="#2C3E50" stroke-width="1.5"/>
    <rect x="10" y="10" width="12" height="12" rx="2" fill="#795548" stroke="#2C3E50" stroke-width="1"/>
    <circle cx="16" cy="16" r="3" fill="#2E7D32"/>
</g><g transform="translate(32, 160)">
    <circle cx="16" cy="16" r="11" fill="#2E7D32" stroke="#2C3E50" stroke-width="1.5"/>
    <rect x="10" y="10" width="12" height="12" rx="2" fill="#FFFFFF" stroke="#2C3E50" stroke-width="1"/>
    <circle cx="16" cy="16" r="3" fill="#4E342E"/>
</g><g transform="translate(64, 160)">
    <circle cx="16" cy="16" r="11" fill="#81C784" stroke="#2C3E50" stroke-width="1.5"/>
    <rect x="10" y="10" width="12" height="12" rx="2" fill="#8D6E63" stroke="#2C3E50" stroke-width="1"/>
    <circle cx="16" cy="16" r="3" fill="#388E3C"/>
</g><g transform="translate(96, 160)">
    <circle cx="16" cy="16" r="11" fill="#FDD835" stroke="#2C3E50" stroke-width="1.5"/>
    <rect x="10" y="10" width="12" height="12" rx="2" fill="#5D4037" stroke="#2C3E50" stroke-width="1"/>
    <circle cx="16" cy="16" r="3" fill="#4CAF50"/>
</g><g transform="translate(128, 160)">
    <circle cx="16" cy="16" r="11" fill="#E53935" stroke="#2C3E50" stroke-width="1.5"/>
    <rect x="10" y="10" width="12" height="12" rx="2" fill="#FFFFFF" stroke="#2C3E50" stroke-width="1"/>
    <circle cx="16" cy="16" r="3" fill="#FFCDD2"/>
</g><g transform="translate(160, 160)">
    <circle cx="16" cy="16" r="11" fill="#66BB6A" stroke="#2C3E50" stroke-width="1.5"/>
    <rect x="10" y="10" width="12" height="12" rx="2" fill="#FF7043" stroke="#2C3E50" stroke-width="1"/>
    <circle cx="16" cy="16" r="3" fill="#2E7D32"/>
</g><g transform="translate(192, 160)">
    <circle cx="16" cy="16" r="11" fill="#43A047" stroke="#2C3E50" stroke-width="1.5"/>
    <rect x="10" y="10" width="12" height="12" rx="2" fill="#A5D6A7" stroke="#2C3E50" stroke-width="1"/>
    <circle cx="16" cy="16" r="3" fill="#1B5E20"/>
</g><g transform="translate(224, 160)">
    <circle cx="16" cy="16" r="11" fill="#2E7D32" stroke="#2C3E50" stroke-width="1.5"/>
    <rect x="10" y="10" width="12" height="12" rx="2" fill="#9C27B0" stroke="#2C3E50" stroke-width="1"/>
    <circle cx="16" cy="16" r="3" fill="#1B5E20"/>
</g><g transform="translate(256, 160)">
    <circle cx="16" cy="16" r="11" fill="#F06292" stroke="#2C3E50" stroke-width="1.5"/>
    <rect x="10" y="10" width="12" height="12" rx="2" fill="#FFF59D" stroke="#2C3E50" stroke-width="1"/>
    <circle cx="16" cy="16" r="3" fill="#AD1457"/>
</g><g transform="translate(288, 160)">
    <circle cx="16" cy="16" r="11" fill="#E64A19" stroke="#2C3E50" stroke-width="1.5"/>
    <rect x="10" y="10" width="12" height="12" rx="2" fill="#F57C00" stroke="#2C3E50" stroke-width="1"/>
    <circle cx="16" cy="16" r="3" fill="#BF360C"/>
</g><g transform="translate(0, 192)">
    <circle cx="16" cy="16" r="11" fill="#E53935" stroke="#2C3E50" stroke-width="1.5"/>
    <rect x="10" y="10" width="12" height="12" rx="2" fill="#ECEFF1" stroke="#2C3E50" stroke-width="1"/>
    <circle cx="16" cy="16" r="3" fill="#039BE5"/>
</g><g transform="translate(32, 192)">
    <circle cx="16" cy="16" r="11" fill="#FBC02D" stroke="#2C3E50" stroke-width="1.5"/>
    <rect x="10" y="10" width="12" height="12" rx="2" fill="#81D4FA" stroke="#2C3E50" stroke-width="1"/>
    <circle cx="16" cy="16" r="3" fill="#F57F17"/>
</g><g transform="translate(64, 192)">
    <circle cx="16" cy="16" r="11" fill="#00E676" stroke="#2C3E50" stroke-width="1.5"/>
    <rect x="10" y="10" width="12" height="12" rx="2" fill="#78909C" stroke="#2C3E50" stroke-width="1"/>
    <circle cx="16" cy="16" r="3" fill="#FFEB3B"/>
</g><g transform="translate(96, 192)">
    <circle cx="16" cy="16" r="11" fill="#ECEFF1" stroke="#2C3E50" stroke-width="1.5"/>
    <rect x="10" y="10" width="12" height="12" rx="2" fill="#29B6F6" stroke="#2C3E50" stroke-width="1"/>
    <circle cx="16" cy="16" r="3" fill="#263238"/>
</g><g transform="translate(128, 192)">
    <circle cx="16" cy="16" r="11" fill="#90A4AE" stroke="#2C3E50" stroke-width="1.5"/>
    <rect x="10" y="10" width="12" height="12" rx="2" fill="#FFD54F" stroke="#2C3E50" stroke-width="1"/>
    <circle cx="16" cy="16" r="3" fill="#37474F"/>
</g><g transform="translate(160, 192)">
    <circle cx="16" cy="16" r="11" fill="#7E57C2" stroke="#2C3E50" stroke-width="1.5"/>
    <rect x="10" y="10" width="12" height="12" rx="2" fill="#B39DDB" stroke="#2C3E50" stroke-width="1"/>
    <circle cx="16" cy="16" r="3" fill="#311B92"/>
</g><g transform="translate(192, 192)">
    <circle cx="16" cy="16" r="11" fill="#3949AB" stroke="#2C3E50" stroke-width="1.5"/>
    <rect x="10" y="10" width="12" height="12" rx="2" fill="#FFCA28" stroke="#2C3E50" stroke-width="1"/>
    <circle cx="16" cy="16" r="3" fill="#1A237E"/>
</g><g transform="translate(224, 192)">
    <circle cx="16" cy="16" r="11" fill="#00E5FF" stroke="#2C3E50" stroke-width="1.5"/>
    <rect x="10" y="10" width="12" height="12" rx="2" fill="#D500F9" stroke="#2C3E50" stroke-width="1"/>
    <circle cx="16" cy="16" r="3" fill="#18FFFF"/>
</g><g transform="translate(256, 192)">
    <circle cx="16" cy="16" r="11" fill="#26A69A" stroke="#2C3E50" stroke-width="1.5"/>
    <rect x="10" y="10" width="12" height="12" rx="2" fill="#ECEFF1" stroke="#2C3E50" stroke-width="1"/>
    <circle cx="16" cy="16" r="3" fill="#004D40"/>
</g><g transform="translate(288, 192)">
    <circle cx="16" cy="16" r="11" fill="#AB47BC" stroke="#2C3E50" stroke-width="1.5"/>
    <rect x="10" y="10" width="12" height="12" rx="2" fill="#00E5FF" stroke="#2C3E50" stroke-width="1"/>
    <circle cx="16" cy="16" r="3" fill="#4A148C"/>
</g><g transform="translate(0, 224)">
    <circle cx="16" cy="16" r="11" fill="#424242" stroke="#2C3E50" stroke-width="1.5"/>
    <rect x="10" y="10" width="12" height="12" rx="2" fill="#E53935" stroke="#2C3E50" stroke-width="1"/>
    <circle cx="16" cy="16" r="3" fill="#BDBDBD"/>
</g><g transform="translate(32, 224)">
    <circle cx="16" cy="16" r="11" fill="#616161" stroke="#2C3E50" stroke-width="1.5"/>
    <rect x="10" y="10" width="12" height="12" rx="2" fill="#FFD54F" stroke="#2C3E50" stroke-width="1"/>
    <circle cx="16" cy="16" r="3" fill="#212121"/>
</g><g transform="translate(64, 224)">
    <circle cx="16" cy="16" r="11" fill="#0288D1" stroke="#2C3E50" stroke-width="1.5"/>
    <rect x="10" y="10" width="12" height="12" rx="2" fill="#FFEB3B" stroke="#2C3E50" stroke-width="1"/>
    <circle cx="16" cy="16" r="3" fill="#D81B60"/>
</g><g transform="translate(96, 224)">
    <circle cx="16" cy="16" r="11" fill="#E91E63" stroke="#2C3E50" stroke-width="1.5"/>
    <rect x="10" y="10" width="12" height="12" rx="2" fill="#FFFFFF" stroke="#2C3E50" stroke-width="1"/>
    <circle cx="16" cy="16" r="3" fill="#0D47A1"/>
</g><g transform="translate(128, 224)">
    <circle cx="16" cy="16" r="11" fill="#E53935" stroke="#2C3E50" stroke-width="1.5"/>
    <rect x="10" y="10" width="12" height="12" rx="2" fill="#FFCDD2" stroke="#2C3E50" stroke-width="1"/>
    <circle cx="16" cy="16" r="3" fill="#B71C1C"/>
</g><g transform="translate(160, 224)">
    <circle cx="16" cy="16" r="11" fill="#FFD600" stroke="#2C3E50" stroke-width="1.5"/>
    <rect x="10" y="10" width="12" height="12" rx="2" fill="#FFA000" stroke="#2C3E50" stroke-width="1"/>
    <circle cx="16" cy="16" r="3" fill="#FFF59D"/>
</g><g transform="translate(192, 224)">
    <circle cx="16" cy="16" r="11" fill="#FFEA00" stroke="#2C3E50" stroke-width="1.5"/>
    <rect x="10" y="10" width="12" height="12" rx="2" fill="#212121" stroke="#2C3E50" stroke-width="1"/>
    <circle cx="16" cy="16" r="3" fill="#FF6D00"/>
</g><g transform="translate(224, 224)">
    <circle cx="16" cy="16" r="11" fill="#212121" stroke="#2C3E50" stroke-width="1.5"/>
    <rect x="10" y="10" width="12" height="12" rx="2" fill="#FF5722" stroke="#2C3E50" stroke-width="1"/>
    <circle cx="16" cy="16" r="3" fill="#757575"/>
</g><g transform="translate(256, 224)">
    <circle cx="16" cy="16" r="11" fill="#00E5FF" stroke="#2C3E50" stroke-width="1.5"/>
    <rect x="10" y="10" width="12" height="12" rx="2" fill="#2979FF" stroke="#2C3E50" stroke-width="1"/>
    <circle cx="16" cy="16" r="3" fill="#ECEFF1"/>
</g><g transform="translate(288, 224)">
    <circle cx="16" cy="16" r="11" fill="#FFD600" stroke="#2C3E50" stroke-width="1.5"/>
    <rect x="10" y="10" width="12" height="12" rx="2" fill="#FF6D00" stroke="#2C3E50" stroke-width="1"/>
    <circle cx="16" cy="16" r="3" fill="#9E9E9E"/>
</g><g transform="translate(0, 256)">
    <circle cx="16" cy="16" r="11" fill="#E91E63" stroke="#2C3E50" stroke-width="1.5"/>
    <rect x="10" y="10" width="12" height="12" rx="2" fill="#F48FB1" stroke="#2C3E50" stroke-width="1"/>
    <circle cx="16" cy="16" r="3" fill="#880E4F"/>
</g><g transform="translate(32, 256)">
    <circle cx="16" cy="16" r="11" fill="#C2185B" stroke="#2C3E50" stroke-width="1.5"/>
    <rect x="10" y="10" width="12" height="12" rx="2" fill="#424242" stroke="#2C3E50" stroke-width="1"/>
    <circle cx="16" cy="16" r="3" fill="#880E4F"/>
</g><g transform="translate(64, 256)">
    <circle cx="16" cy="16" r="11" fill="#ECEFF1" stroke="#2C3E50" stroke-width="1.5"/>
    <rect x="10" y="10" width="12" height="12" rx="2" fill="#212121" stroke="#2C3E50" stroke-width="1"/>
    <circle cx="16" cy="16" r="3" fill="#90A4AE"/>
</g><g transform="translate(96, 256)">
    <circle cx="16" cy="16" r="11" fill="#FFEB3B" stroke="#2C3E50" stroke-width="1.5"/>
    <rect x="10" y="10" width="12" height="12" rx="2" fill="#212121" stroke="#2C3E50" stroke-width="1"/>
    <circle cx="16" cy="16" r="3" fill="#F57F17"/>
</g><g transform="translate(128, 256)">
    <circle cx="16" cy="16" r="11" fill="#FFEB3B" stroke="#2C3E50" stroke-width="1.5"/>
    <rect x="10" y="10" width="12" height="12" rx="2" fill="#212121" stroke="#2C3E50" stroke-width="1"/>
    <circle cx="16" cy="16" r="3" fill="#F57F17"/>
</g><g transform="translate(160, 256)">
    <circle cx="16" cy="16" r="11" fill="#FFEB3B" stroke="#2C3E50" stroke-width="1.5"/>
    <rect x="10" y="10" width="12" height="12" rx="2" fill="#212121" stroke="#2C3E50" stroke-width="1"/>
    <circle cx="16" cy="16" r="3" fill="#F57F17"/>
</g><g transform="translate(192, 256)">
    <circle cx="16" cy="16" r="11" fill="#FF5722" stroke="#2C3E50" stroke-width="1.5"/>
    <rect x="10" y="10" width="12" height="12" rx="2" fill="#FFEB3B" stroke="#2C3E50" stroke-width="1"/>
    <circle cx="16" cy="16" r="3" fill="#BF360C"/>
</g><g transform="translate(224, 256)">
    <circle cx="16" cy="16" r="11" fill="#FFD600" stroke="#2C3E50" stroke-width="1.5"/>
    <rect x="10" y="10" width="12" height="12" rx="2" fill="#FFA000" stroke="#2C3E50" stroke-width="1"/>
    <circle cx="16" cy="16" r="3" fill="#212121"/>
</g><g transform="translate(256, 256)">
    <circle cx="16" cy="16" r="11" fill="#FFD54F" stroke="#2C3E50" stroke-width="1.5"/>
    <rect x="10" y="10" width="12" height="12" rx="2" fill="#81D4FA" stroke="#2C3E50" stroke-width="1"/>
    <circle cx="16" cy="16" r="3" fill="#FF6F00"/>
</g><g transform="translate(288, 256)">
    <circle cx="16" cy="16" r="11" fill="#00E676" stroke="#2C3E50" stroke-width="1.5"/>
    <rect x="10" y="10" width="12" height="12" rx="2" fill="#E0F2F1" stroke="#2C3E50" stroke-width="1"/>
    <circle cx="16" cy="16" r="3" fill="#004D40"/>
</g><g transform="translate(0, 288)">
    <circle cx="16" cy="16" r="11" fill="#FFB300" stroke="#2C3E50" stroke-width="1.5"/>
    <rect x="10" y="10" width="12" height="12" rx="2" fill="#FFEA00" stroke="#2C3E50" stroke-width="1"/>
    <circle cx="16" cy="16" r="3" fill="#E65100"/>
</g><g transform="translate(32, 288)">
    <circle cx="16" cy="16" r="11" fill="#FFF59D" stroke="#2C3E50" stroke-width="1.5"/>
    <rect x="10" y="10" width="12" height="12" rx="2" fill="#FFE082" stroke="#2C3E50" stroke-width="1"/>
    <circle cx="16" cy="16" r="3" fill="#9E9E9E"/>
</g><g transform="translate(64, 288)">
    <circle cx="16" cy="16" r="11" fill="#FFF59D" stroke="#2C3E50" stroke-width="1.5"/>
    <rect x="10" y="10" width="12" height="12" rx="2" fill="#81D4FA" stroke="#2C3E50" stroke-width="1"/>
    <circle cx="16" cy="16" r="3" fill="#FFCA28"/>
</g><g transform="translate(96, 288)">
    <circle cx="16" cy="16" r="11" fill="#78909C" stroke="#2C3E50" stroke-width="1.5"/>
    <rect x="10" y="10" width="12" height="12" rx="2" fill="#29B6F6" stroke="#2C3E50" stroke-width="1"/>
    <circle cx="16" cy="16" r="3" fill="#37474F"/>
</g><g transform="translate(128, 288)">
    <circle cx="16" cy="16" r="11" fill="#455A64" stroke="#2C3E50" stroke-width="1.5"/>
    <rect x="10" y="10" width="12" height="12" rx="2" fill="#FFD600" stroke="#2C3E50" stroke-width="1"/>
    <circle cx="16" cy="16" r="3" fill="#263238"/>
</g><g transform="translate(160, 288)">
    <circle cx="16" cy="16" r="11" fill="#E53935" stroke="#2C3E50" stroke-width="1.5"/>
    <rect x="10" y="10" width="12" height="12" rx="2" fill="#FDD835" stroke="#2C3E50" stroke-width="1"/>
    <circle cx="16" cy="16" r="3" fill="#1E88E5"/>
</g><g transform="translate(192, 288)">
    <circle cx="16" cy="16" r="11" fill="#81D4FA" stroke="#2C3E50" stroke-width="1.5"/>
    <rect x="10" y="10" width="12" height="12" rx="2" fill="#E1F5FE" stroke="#2C3E50" stroke-width="1"/>
    <circle cx="16" cy="16" r="3" fill="#0288D1"/>
</g><g transform="translate(224, 288)">
    <circle cx="16" cy="16" r="11" fill="#80DEEA" stroke="#2C3E50" stroke-width="1.5"/>
    <rect x="10" y="10" width="12" height="12" rx="2" fill="#E0F7FA" stroke="#2C3E50" stroke-width="1"/>
    <circle cx="16" cy="16" r="3" fill="#00838F"/>
</g><g transform="translate(256, 288)">
    <circle cx="16" cy="16" r="11" fill="#FFD54F" stroke="#2C3E50" stroke-width="1.5"/>
    <rect x="10" y="10" width="12" height="12" rx="2" fill="#FFF9C4" stroke="#2C3E50" stroke-width="1"/>
    <circle cx="16" cy="16" r="3" fill="#FF6F00"/>
</g><g transform="translate(288, 288)">
    <circle cx="16" cy="16" r="11" fill="#FF3D00" stroke="#2C3E50" stroke-width="1.5"/>
    <rect x="10" y="10" width="12" height="12" rx="2" fill="#FFD600" stroke="#2C3E50" stroke-width="1"/>
    <circle cx="16" cy="16" r="3" fill="#DD2C00"/>
</g><g transform="translate(0, 320)">
    <circle cx="16" cy="16" r="11" fill="#E53935" stroke="#2C3E50" stroke-width="1.5"/>
    <rect x="10" y="10" width="12" height="12" rx="2" fill="#212121" stroke="#2C3E50" stroke-width="1"/>
    <circle cx="16" cy="16" r="3" fill="#90A4AE"/>
</g><g transform="translate(32, 320)">
    <circle cx="16" cy="16" r="11" fill="#37474F" stroke="#2C3E50" stroke-width="1.5"/>
    <rect x="10" y="10" width="12" height="12" rx="2" fill="#FFD54F" stroke="#2C3E50" stroke-width="1"/>
    <circle cx="16" cy="16" r="3" fill="#D32F2F"/>
</g><g transform="translate(64, 320)">
    <circle cx="16" cy="16" r="11" fill="#ECEFF1" stroke="#2C3E50" stroke-width="1.5"/>
    <rect x="10" y="10" width="12" height="12" rx="2" fill="#795548" stroke="#2C3E50" stroke-width="1"/>
    <circle cx="16" cy="16" r="3" fill="#0288D1"/>
</g><g transform="translate(96, 320)">
    <circle cx="16" cy="16" r="11" fill="#ECEFF1" stroke="#2C3E50" stroke-width="1.5"/>
    <rect x="10" y="10" width="12" height="12" rx="2" fill="#1976D2" stroke="#2C3E50" stroke-width="1"/>
    <circle cx="16" cy="16" r="3" fill="#78909C"/>
</g><g transform="translate(128, 320)">
    <circle cx="16" cy="16" r="11" fill="#E53935" stroke="#2C3E50" stroke-width="1.5"/>
    <rect x="10" y="10" width="12" height="12" rx="2" fill="#FDD835" stroke="#2C3E50" stroke-width="1"/>
    <circle cx="16" cy="16" r="3" fill="#8D6E63"/>
</g><g transform="translate(160, 320)">
    <circle cx="16" cy="16" r="11" fill="#00ACC1" stroke="#2C3E50" stroke-width="1.5"/>
    <rect x="10" y="10" width="12" height="12" rx="2" fill="#424242" stroke="#2C3E50" stroke-width="1"/>
    <circle cx="16" cy="16" r="3" fill="#BDBDBD"/>
</g><g transform="translate(192, 320)">
    <circle cx="16" cy="16" r="11" fill="#B0BEC5" stroke="#2C3E50" stroke-width="1.5"/>
    <rect x="10" y="10" width="12" height="12" rx="2" fill="#FFD54F" stroke="#2C3E50" stroke-width="1"/>
    <circle cx="16" cy="16" r="3" fill="#37474F"/>
</g><g transform="translate(224, 320)">
    <circle cx="16" cy="16" r="11" fill="#FDD835" stroke="#2C3E50" stroke-width="1.5"/>
    <rect x="10" y="10" width="12" height="12" rx="2" fill="#0288D1" stroke="#2C3E50" stroke-width="1"/>
    <circle cx="16" cy="16" r="3" fill="#F57F17"/>
</g><g transform="translate(256, 320)">
    <circle cx="16" cy="16" r="11" fill="#8D6E63" stroke="#2C3E50" stroke-width="1.5"/>
    <rect x="10" y="10" width="12" height="12" rx="2" fill="#5D4037" stroke="#2C3E50" stroke-width="1"/>
    <circle cx="16" cy="16" r="3" fill="#4E342E"/>
</g><g transform="translate(288, 320)">
    <circle cx="16" cy="16" r="11" fill="#43A047" stroke="#2C3E50" stroke-width="1.5"/>
    <rect x="10" y="10" width="12" height="12" rx="2" fill="#E53935" stroke="#2C3E50" stroke-width="1"/>
    <circle cx="16" cy="16" r="3" fill="#212121"/>
</g><g transform="translate(0, 352)">
    <circle cx="16" cy="16" r="11" fill="#FFF9C4" stroke="#2C3E50" stroke-width="1.5"/>
    <rect x="10" y="10" width="12" height="12" rx="2" fill="#FF5722" stroke="#2C3E50" stroke-width="1"/>
    <circle cx="16" cy="16" r="3" fill="#795548"/>
</g><g transform="translate(32, 352)">
    <circle cx="16" cy="16" r="11" fill="#424242" stroke="#2C3E50" stroke-width="1.5"/>
    <rect x="10" y="10" width="12" height="12" rx="2" fill="#FFD54F" stroke="#2C3E50" stroke-width="1"/>
    <circle cx="16" cy="16" r="3" fill="#212121"/>
</g><g transform="translate(64, 352)">
    <circle cx="16" cy="16" r="11" fill="#8D6E63" stroke="#2C3E50" stroke-width="1.5"/>
    <rect x="10" y="10" width="12" height="12" rx="2" fill="#FFE082" stroke="#2C3E50" stroke-width="1"/>
    <circle cx="16" cy="16" r="3" fill="#4E342E"/>
</g><g transform="translate(96, 352)">
    <circle cx="16" cy="16" r="11" fill="#6A1B9A" stroke="#2C3E50" stroke-width="1.5"/>
    <rect x="10" y="10" width="12" height="12" rx="2" fill="#FFD54F" stroke="#2C3E50" stroke-width="1"/>
    <circle cx="16" cy="16" r="3" fill="#ECEFF1"/>
</g><g transform="translate(128, 352)">
    <circle cx="16" cy="16" r="11" fill="#00E676" stroke="#2C3E50" stroke-width="1.5"/>
    <rect x="10" y="10" width="12" height="12" rx="2" fill="#ECEFF1" stroke="#2C3E50" stroke-width="1"/>
    <circle cx="16" cy="16" r="3" fill="#795548"/>
</g><g transform="translate(160, 352)">
    <circle cx="16" cy="16" r="11" fill="#D4AC0D" stroke="#2C3E50" stroke-width="1.5"/>
    <rect x="10" y="10" width="12" height="12" rx="2" fill="#81D4FA" stroke="#2C3E50" stroke-width="1"/>
    <circle cx="16" cy="16" r="3" fill="#7D6608"/>
</g><g transform="translate(192, 352)">
    <circle cx="16" cy="16" r="11" fill="#FFB300" stroke="#2C3E50" stroke-width="1.5"/>
    <rect x="10" y="10" width="12" height="12" rx="2" fill="#FF3D00" stroke="#2C3E50" stroke-width="1"/>
    <circle cx="16" cy="16" r="3" fill="#F57F17"/>
</g><g transform="translate(224, 352)">
    <circle cx="16" cy="16" r="11" fill="#8D6E63" stroke="#2C3E50" stroke-width="1.5"/>
    <rect x="10" y="10" width="12" height="12" rx="2" fill="#42A5F5" stroke="#2C3E50" stroke-width="1"/>
    <circle cx="16" cy="16" r="3" fill="#66BB6A"/>
</g><g transform="translate(256, 352)">
    <circle cx="16" cy="16" r="11" fill="#9C27B0" stroke="#2C3E50" stroke-width="1.5"/>
    <rect x="10" y="10" width="12" height="12" rx="2" fill="#E1BEE7" stroke="#2C3E50" stroke-width="1"/>
    <circle cx="16" cy="16" r="3" fill="#4A148C"/>
</g><g transform="translate(288, 352)">
    <circle cx="16" cy="16" r="11" fill="#546E7A" stroke="#2C3E50" stroke-width="1.5"/>
    <rect x="10" y="10" width="12" height="12" rx="2" fill="#37474F" stroke="#2C3E50" stroke-width="1"/>
    <circle cx="16" cy="16" r="3" fill="#B0BEC5"/>
</g>
</svg>