<svg xmlns="http://www.w3.org/2000/svg" viewBox="0 0 48 48" width="48" height="48" fill="currentColor">
    <path d="M 24 4 L 26.74 6.72 L 30.18 4.98 L 31.94 8.41 L 35.76 7.82 L 36.37 11.63 L 40.18 12.24 L 39.59 16.06 L 43.02 17.82 L 41.28 21.26 L 44 24 L 41.28 26.74 L 43.02 30.18 L 39.59 31.94 L 40.18 35.76 L 36.37 36.37 L 35.76 40.18 L 31.94 39.59 L 30.18 43.02 L 26.74 41.28 L 24 44 L 21.26 41.28 L 17.82 43.02 L 16.06 39.59 L 12.24 40.18 L 11.63 36.37 L 7.82 35.76 L 8.41 31.94 L 4.98 30.18 L 6.72 26.74 L 4 24 L 6.72 21.26 L 4.98 17.82 L 8.41 16.06 L 7.82 12.24 L 11.63 11.63 L 12.24 7.82 L 16.06 8.41 L 17.82 4.98 L 21.26 6.72 Z" fill-rule="evenodd" />
</svg>